<svg width="72.000000" height="72.000000" viewBox="0 0 72 72" fill="none" xmlns="http://www.w3.org/2000/svg" xmlns:xlink="http://www.w3.org/1999/xlink">
	<desc>
			Created with Pixso.
	</desc>
	<defs>
		<clipPath id="clip508_5794">
			<rect width="78.000000" height="78.000000" transform="translate(-6.000000 0.000000)" fill="white" fill-opacity="0"/>
		</clipPath>
		<clipPath id="clip508_5793">
			<rect width="72.000000" height="72.000000" fill="white" fill-opacity="0"/>
		</clipPath>
	</defs>
	<rect width="72.000000" height="72.000000" fill="#FFFFFF" fill-opacity="0"/>
	<g clip-path="url(#clip508_5793)">
		<rect width="78.000000" height="78.000000" transform="translate(-6.000000 0.000000)" fill="#FFFFFF" fill-opacity="0"/>
		<g clip-path="url(#clip508_5794)">
			<path d="M52.5 35.75L29.75 35.75C28.8881 35.75 28.0614 35.4076 27.4519 34.7981C26.8424 34.1886 26.5 33.3619 26.5 32.5L26.5 13C26.5 12.1381 26.8424 11.3114 27.4519 10.7019C28.0614 10.0924 28.8881 9.75 29.75 9.75L59 9.75C59.8619 9.75 60.6886 10.0924 61.2981 10.7019C61.9076 11.3114 62.25 12.1381 62.25 13L62.25 45.5L52.5 35.75Z" stroke="#3F3A64" stroke-opacity="1.000000" stroke-width="2.750000" stroke-linejoin="round"/>
			<path d="M39.5 48.75L39.5 55.25C39.5 56.1119 39.1576 56.9386 38.5481 57.5481C37.9386 58.1576 37.1119 58.5 36.25 58.5L13.5 58.5L3.75 68.25L3.75 35.75C3.75 34.8881 4.09241 34.0614 4.7019 33.4519C5.3114 32.8424 6.13806 32.5 7 32.5L13.5 32.5" stroke="#20AD96" stroke-opacity="1.000000" stroke-width="2.750000" stroke-linejoin="round" stroke-linecap="round"/>
		</g>
	</g>
</svg>
